<?xml version="1.0" encoding="UTF-8"?>
<svg id="Capa_1" xmlns="http://www.w3.org/2000/svg" version="1.1" viewBox="0 0 120 37">
  <!-- Generator: Adobe Illustrator 29.2.1, SVG Export Plug-In . SVG Version: 2.1.0 Build 116)  -->
  <defs>
    <style>
      .st0 {
        fill: #00dea5;
      }
    </style>
  </defs>
  <path class="st0" d="M18.4,34c-8,0-15-6.2-15.7-14.2C1.9,11.5,7.5,4,15.7,2.5c8-1.5,15.9,3.4,18.2,11.2,1.1,3.9.8,7.6-.9,11.3-1,2.1-3.2,2.6-4.6,1.1-1.1-1.1-1-2.4-.4-3.7,1.9-4.5.7-9.1-2.9-12.2-3.4-2.8-8.6-3-12.2-.5-3.8,2.7-5.5,7.5-4,11.8,1.4,4.3,5.8,7.3,10.3,7,.5,0,1-.1,1.5-.1,1.4,0,2.6,1,2.8,2.4.2,1.4-.6,2.7-2,3.1-.2,0-.5.2-.7.2-.9,0-1.7,0-2.4,0Z"/>
  <path class="st0" d="M28.7,34.1c-1.6,0-3-1.3-3-3h0c0-1.7,1.4-3,3-3s3.1,1.4,3.1,3-1.4,3-3.1,3ZM45.2,14.1c0,.3,0,.6-.2.9,0,.3-.3.5-.4.7-.2.2-.4.4-.7.5s-.6.2-1,.2-.7-.1-1-.2-.5-.3-.7-.5-.3-.4-.4-.7c0-.3-.2-.6-.2-.9v-3.4h1.2v3.3c0,.2,0,.3,0,.5,0,.3.3.5.6.6,0,.1.3.1.5.1s.3,0,.5-.1.3-.1.3-.3.2-.2.2-.4,0-.3,0-.5v-3.4h1.2s0,3.6,0,3.6ZM46.4,10.6h1.6l2.4,3.9v-3.9h1.2v5.6h-1.6l-2.4-4v4h-1.2s0-5.6,0-5.6ZM52.8,10.6h1.2v5.6h-1.2s0-5.6,0-5.6ZM54.5,10.6h1.4l1.4,3.6,1.4-3.6h1.3l-2.3,5.6h-1c0,0-2.2-5.6-2.2-5.6ZM60.7,10.6h3.8v1.1h-2.5v1h2.4v1.1h-2.4v1.1h2.7v1.1h-3.9s0-5.4,0-5.4ZM65.6,10.6h2.2c.3,0,.6,0,.8.1.3.1.5.1.7.3l.5.5c0,.2.2.5.2.8s0,.7-.3,1c-.2.3-.5.4-.9.5l1.4,2.4h-1.5l-1.3-2.2h-.6v2.2h-1.2v-5.6ZM66.8,12.9h1c0,0,.2,0,.3-.1s.2-.1.3-.2,0-.2,0-.4,0-.3,0-.3l-.2-.2c0,0-.2-.1-.3-.1h-1.1s0,1.3,0,1.3ZM73.4,12c0-.1-.2-.2-.4-.3-.2-.1-.3-.1-.5-.1h-.3c0,0-.2.1-.3.1s-.2.1-.2.2c0,.1,0,.2,0,.3,0,.2,0,.3.2.4,0,.1.3.2.5.2.2.1.4.1.6.2.2.1.4.1.6.3.2.1.3.3.5.5s.2.4.2.8,0,.6-.2.8-.3.4-.5.6c-.2.2-.4.3-.7.3-.3.1-.5.1-.8.1s-.7,0-1-.2c-.3-.1-.6-.3-.9-.5l.9-1c0,.2.3.3.5.4.2.1.4.1.6.1h.3c0,0,.2-.1.3-.1,0-.1.2-.1.2-.2s0-.2,0-.3c0-.2,0-.3-.2-.4,0-.1-.3-.2-.5-.3s-.4-.1-.6-.2l-.6-.3c-.2-.1-.4-.3-.5-.5s-.2-.4-.2-.8,0-.6.2-.8.3-.4.5-.6c.2-.1.4-.3.7-.3.3-.1.5-.1.8-.1s.6,0,.9.1.6.2.8.4c0,0-.9,1.2-.9,1.2ZM75.2,10.6h1.2v5.6h-1.2s0-5.6,0-5.6ZM77.5,10.6h1.8c.4,0,.9.1,1.3.1.4.1.8.3,1.1.5.3.2.5.5.7.9s.3.8.3,1.3,0,.9-.3,1.2c-.2.3-.4.6-.7.9s-.6.4-1,.5c-.4,0-.8.2-1.2.2h-2s0-5.6,0-5.6ZM78.7,15.1h.6c.3,0,.6,0,.8-.1s.4-.1.6-.3c.2-.1.3-.3.4-.5s.2-.5.2-.8,0-.5-.2-.7-.2-.4-.4-.5l-.6-.3c-.2-.1-.5-.1-.7-.1h-.7s0,3.3,0,3.3ZM85.3,10.6h1l2.4,5.6h-1.4l-.4-1.2h-2.2l-.5,1.2h-1.3s2.4-5.6,2.4-5.6ZM85.8,12.3l-.7,1.7h1.4s-.7-1.7-.7-1.7ZM89.3,10.6h1.8c.4,0,.9.1,1.3.1.4.1.8.3,1.1.5.3.2.5.5.7.9s.3.8.3,1.3,0,.9-.3,1.2c-.2.3-.4.6-.7.9s-.6.4-1,.5c-.4,0-.8.2-1.2.2h-2s0-5.6,0-5.6ZM90.5,15.1h.6c.3,0,.6,0,.8-.1s.4-.1.6-.3c.2-.1.3-.3.4-.5s.2-.5.2-.8,0-.5-.2-.7-.2-.4-.4-.5l-.6-.3c-.2-.1-.5-.1-.7-.1h-.7s0,3.3,0,3.3ZM97.6,10.6h2.2c.3,0,.6,0,.8.1.3.1.5.1.7.3.2.1.3.3.5.5,0,.2.2.5.2.8s0,.7-.3,1c-.2.3-.5.4-.9.5l1.4,2.4h-1.5l-1.3-2.2h-.6v2.2h-1.2s0-5.6,0-5.6ZM98.8,12.9h1c0,0,.2,0,.3-.1s.2-.1.3-.2,0-.2,0-.4,0-.3,0-.3l-.2-.2c0,0-.2-.1-.3-.1h-1.1s0,1.3,0,1.3ZM102.7,10.6h3.8v1.1h-2.5v1h2.4v1.1h-2.4v1.1h2.7v1.1h-3.9s0-5.4,0-5.4ZM109.5,10.6h1l2.4,5.6h-1.4l-.5-1.2h-2.2l-.5,1.2h-1.3s2.5-5.6,2.5-5.6ZM109.9,12.3l-.7,1.7h1.4s-.7-1.7-.7-1.7ZM113.5,10.6h1.2v4.4h2.3v1.1h-3.5v-5.5ZM40.5,20.1h1.8c.5,0,.9,0,1.3.1s.8.3,1,.5.5.5.7.9.3.8.3,1.3,0,.9-.3,1.2-.4.6-.7.9c-.3.2-.6.4-1,.5s-.8.2-1.2.2h-2s0-5.6.1-5.6ZM41.8,24.5h.6c.3,0,.5,0,.8-.1s.5-.1.6-.3c.2-.1.3-.3.4-.5,0-.2.2-.5.2-.8s0-.5-.2-.7c0-.2-.2-.4-.4-.5l-.6-.3c-.2-.1-.5-.1-.7-.1h-.7s0,3.3,0,3.3ZM46.5,20.1h3.8v1.1h-2.5v1h2.4v1.1h-2.4v1.1h2.7v1.1h-3.9s0-5.4,0-5.4ZM59.9,25.6h-3.4c-.4,0-.8-.1-1.2-.2s-.7-.3-1-.6c-.3-.3-.5-.5-.6-.9-.2-.4-.2-.8-.2-1.2s0-.8.2-1.2c.2-.4.4-.6.6-.9.3-.3.6-.5.9-.6.4-.1.8-.2,1.2-.2s.8.1,1.2.2.7.3.9.6c.3.3.5.5.6.9s.2.7.2,1.1,0,.4,0,.6c0,.2,0,.4-.2.5,0,.2-.2.3-.3.5,0,.1-.3.2-.5.3h1.6s0,1.1,0,1.1ZM54.8,22.8c0,.2,0,.5,0,.7s.2.4.4.5.3.3.5.4.4.1.7.1.5,0,.7-.1.4-.2.5-.4c.3-.3.5-.8.5-1.2s0-.5,0-.7-.2-.4-.4-.5-.3-.3-.5-.4-.4-.1-.7-.1-.5,0-.7.1-.4.2-.5.4c-.2.1-.3.3-.4.5,0,.2,0,.4,0,.7ZM65.2,23.5c0,.3,0,.6-.2.9s-.3.5-.4.7c-.2.2-.4.4-.7.5s-.6.2-1,.2-.7-.1-1-.2-.5-.3-.7-.5-.3-.5-.4-.7c0-.3-.2-.6-.2-.9v-3.4h1.2v3.4c0,.2,0,.3,0,.5,0,.3.3.5.6.6,0,.1.3.1.5.1s.3,0,.5-.1.3-.1.3-.3.2-.2.2-.4,0-.3,0-.5v-3.4h1.2s0,3.5,0,3.5ZM66.3,20.1h3.8v1.1h-2.6v1h2.5v1.1h-2.4v1.1h2.7v1.1h-3.9s0-5.4,0-5.4ZM71.3,20.1h2.2c.3,0,.6,0,.8.1.3,0,.5.1.7.3l.5.5c0,.2.2.5.2.8s0,.7-.3,1c-.2.3-.5.5-.9.5l1.4,2.4h-1.5l-1.2-2.2h-.6v2.2h-1.2s0-5.6,0-5.6ZM72.5,22.4h1c0,0,.2,0,.3-.1,0,0,.2-.1.3-.2s0-.2,0-.4,0-.3,0-.3l-.2-.2c0,0-.2-.1-.3-.1h-1.1s0,1.3,0,1.3ZM76.4,20.1h3.8v1.1h-2.6v1h2.4v1.1h-2.4v1.1h2.7v1.1h-3.9s0-5.4,0-5.4ZM78.3,18.5h1.6l-1.4,1.1h-1l.8-1.1ZM82.4,21.2h-1.6v-1.1h4.4v1.1h-1.6v4.5h-1.2s0-4.5,0-4.5ZM86.9,20.1h1l2.4,5.6h-1.3l-.5-1.2h-2.2l-.5,1.2h-1.3l2.4-5.6ZM87.4,21.7l-.7,1.7h1.4s-.7-1.7-.7-1.7ZM90.9,20.1h2.2c.3,0,.6,0,.8.1.3,0,.5.1.7.3.2.1.3.3.5.5,0,.2.2.5.2.8s0,.7-.3,1c-.2.3-.5.5-.9.5l1.4,2.4h-1.5l-1.2-2.2h-.6v2.2h-1.2s0-5.6,0-5.6ZM92.1,22.4h1c0,0,.2,0,.3-.1,0,0,.2-.1.3-.2s0-.2,0-.4,0-.3,0-.3l-.2-.2c0,0-.2-.1-.3-.1h-1.1s0,1.3,0,1.3ZM95.7,22.9c0-.5,0-.9.2-1.2s.4-.7.6-.9c.3-.3.6-.5.9-.6.4-.1.8-.2,1.2-.2s.8.1,1.2.2c.4.1.7.3.9.6.3.3.5.6.6.9.2.4.2.8.2,1.2s0,.9-.2,1.2-.4.7-.6.9c-.3.3-.6.5-.9.6-.4.1-.8.2-1.2.2s-.8-.1-1.2-.2c-.4-.1-.7-.3-.9-.6-.3-.3-.5-.6-.6-.9,0-.4-.2-.8-.2-1.2ZM97,22.9c0,.3,0,.5,0,.7l.3.6c0,.2.3.3.6.4.2.1.4.1.7.1s.5,0,.7-.1.4-.2.6-.4c.2-.2.3-.4.3-.6s0-.5,0-.7,0-.5,0-.7l-.3-.6c0-.2-.3-.3-.6-.4-.2-.1-.4-.1-.7-.1s-.5,0-.7.1-.4.2-.6.4c-.2.2-.3.4-.3.6,0,.2,0,.4,0,.7Z"/>
</svg>